<svg xmlns="http://www.w3.org/2000/svg" viewBox="0 0 230.674 209.786"><path d="M115.247 104.92V16.467c0-4.6-.228-9.147-5.245-11.446-5.188-2.377-8.793.213-12.357 3.7-14.525 14.215-29.216 28.254-43.69 42.513a11.041 11.041 0 01-8.822 3.47c-7.988-.232-16-.253-23.982.032C8.716 55.179.253 63.723.135 76.127q-.274 28.732 0 57.468c.115 12.713 9.1 21.417 21.921 21.594 7.661.106 15.331.193 22.985-.056a11.031 11.031 0 018.808 3.492c14.881 14.555 29.964 28.9 44.929 43.373 3.436 3.323 7.14 4.827 11.719 2.587 4.812-2.354 4.722-6.879 4.729-11.21q.068-44.228.021-88.455zm115.427 3.97c-.923-8.744-1.069-17.654-2.9-26.2-7.878-36.7-28.406-64-62.071-81.051-9.833-4.98-20.6 1.983-20.5 12.98.065 7.448 4.933 11.142 10.639 14.421 28.64 16.456 44.6 40.866 45.3 74.214.6 28.5-10.851 51.7-33.015 69.469-5.68 4.553-12.355 7.851-18.171 12.256-5.681 4.3-6.446 12.237-2.465 18.441 3.537 5.513 11.223 8.047 17.113 5.171a115.39 115.39 0 0040.058-31.595c15.903-19.86 24.363-42.553 26.012-68.106zm-86.639-4.1c0 11.64-.249 23.289.205 34.911.093 2.387 2.355 5.856 4.453 6.67 2.122.823 6.171-.15 7.852-1.846 20.994-21.184 21.107-56.947.608-78.658-2.561-2.712-5.533-3.9-8.956-2.693-3.442 1.212-4.235 4.222-4.2 7.694.097 11.305.035 22.613.038 33.92z" fill="#fff"/><path d="M115.247 104.92q0 44.226-.024 88.453c-.007 4.331.083 8.856-4.729 11.21-4.579 2.24-8.282.736-11.719-2.587-14.965-14.47-30.048-28.818-44.929-43.373a11.031 11.031 0 00-8.808-3.492c-7.654.249-15.324.162-22.985.056C9.234 155.011.247 146.308.132 133.595q-.26-28.732 0-57.468c.118-12.4 8.581-20.948 21.015-21.391 7.986-.285 15.994-.264 23.982-.032a11.041 11.041 0 008.822-3.47C68.429 36.975 83.12 22.936 97.641 8.723c3.564-3.489 7.169-6.079 12.357-3.7 5.017 2.3 5.244 6.841 5.245 11.446q.012 44.225.004 88.451zM230.674 108.89c-1.65 25.553-10.109 48.246-26.018 68.1a115.39 115.39 0 01-40.056 31.6c-5.889 2.876-13.575.341-17.113-5.171-3.981-6.2-3.216-14.138 2.465-18.441 5.816-4.405 12.49-7.7 18.171-12.256 22.164-17.767 33.613-40.973 33.015-69.469-.7-33.348-16.661-57.758-45.3-74.214-5.707-3.279-10.574-6.972-10.639-14.421-.1-11 10.671-17.96 20.5-12.98 33.665 17.05 54.194 44.346 62.071 81.051 1.83 8.547 1.981 17.458 2.904 26.201z"/><path d="M144.034 104.788c0-11.307.061-22.615-.039-33.921-.031-3.472.762-6.482 4.2-7.694 3.423-1.206 6.4-.019 8.956 2.693 20.5 21.711 20.386 57.474-.608 78.658-1.681 1.7-5.731 2.669-7.852 1.846-2.1-.814-4.36-4.284-4.453-6.67-.452-11.622-.203-23.272-.204-34.912z"/></svg>